<svg
  className="animate-spin -ml-1 mr-3 h-5 w-5 text-indigo-500"
  xmlns="http://www.w3.org/2000/svg"
  fill="none"
  viewBox="0 0 24 24"
>
  <circle
    className="opacity-25"
    cx="12"
    cy="12"
    r="10"
    stroke="currentColor"
    strokeWidth="4"
  ></circle>
  <path
    className="opacity-75"
    fill="currentColor"
    d="M4 12a8 8 0 018-8V0C5.373 0 0 5.373 0 12h4zm2 5.291A7.962 7.962 0 014 12H0c0 3.042 1.135 5.864 3.01 7.979l2.01-2.688zM12 20a8 8 0 008-8h-4a4 4 0 01-4 4v4zm5.312-9.688l2.687 2.01A7.962 7.962 0 0020 12h-4a3.96 3.96 0 01-1.312 2.688z"
  ></path>
</svg>
